<?xml version="1.0" encoding="UTF-8"?>
<svg xmlns="http://www.w3.org/2000/svg" xmlns:xlink="http://www.w3.org/1999/xlink" width="200px" height="200px" viewBox="0 0 200 200" version="1.1"><g id="surface1"><rect x="0" y="0" width="200" height="200" rx="3" style="fill:#242020;fill-opacity:1;stroke:none;"/><path style=" stroke:none;fill-rule:nonzero;fill:#ffffff;fill-opacity:1;" d="M 43.273438 28.519531 C 43.273438 36.613281 36.710938 43.175781 28.613281 43.175781 C 20.519531 43.175781 13.957031 36.613281 13.957031 28.519531 C 13.957031 20.425781 20.519531 13.863281 28.613281 13.863281 C 36.710938 13.863281 43.273438 20.425781 43.273438 28.519531 Z M 43.273438 28.519531 "/><path style=" stroke:none;fill-rule:nonzero;fill:#ffffff;fill-opacity:1;" d="M 186.042969 28.519531 C 186.042969 36.613281 179.480469 43.175781 171.386719 43.175781 C 163.289062 43.175781 156.726562 36.613281 156.726562 28.519531 C 156.726562 20.425781 163.289062 13.863281 171.386719 13.863281 C 179.480469 13.863281 186.042969 20.425781 186.042969 28.519531 Z M 186.042969 28.519531 "/><path style=" stroke:none;fill-rule:nonzero;fill:#ffffff;fill-opacity:1;" d="M 171.386719 61.453125 C 168.71875 61.453125 166.246094 62.214844 164.152344 63.355469 L 136.359375 35.753906 C 137.5 33.660156 138.261719 31.183594 138.261719 28.519531 C 138.261719 20.523438 131.789062 13.863281 123.605469 13.863281 C 115.417969 13.863281 108.945312 20.332031 108.945312 28.519531 C 108.945312 36.703125 115.417969 43.175781 123.605469 43.175781 C 126.269531 43.175781 128.746094 42.414062 130.839844 41.273438 L 158.441406 68.875 C 157.296875 70.96875 156.539062 73.445312 156.539062 76.109375 C 156.539062 78.773438 157.296875 81.25 158.441406 83.34375 L 131.027344 111.136719 C 128.933594 109.992188 126.460938 109.234375 123.796875 109.234375 C 115.800781 109.234375 109.136719 115.703125 109.136719 123.890625 C 109.136719 132.074219 115.609375 138.546875 123.796875 138.546875 C 131.980469 138.546875 138.453125 132.074219 138.453125 123.890625 C 138.453125 121.226562 137.691406 118.75 136.550781 116.65625 L 164.152344 89.054688 C 166.246094 90.195312 168.71875 90.957031 171.386719 90.957031 C 179.378906 90.957031 186.042969 84.484375 186.042969 76.300781 C 186.042969 68.113281 179.378906 61.453125 171.386719 61.453125 Z M 171.386719 61.453125 "/><path style=" stroke:none;fill-rule:nonzero;fill:#ffffff;fill-opacity:1;" d="M 28.613281 90.765625 C 36.609375 90.765625 43.273438 84.296875 43.273438 76.109375 C 43.273438 73.445312 42.511719 70.96875 41.367188 68.875 L 68.972656 41.273438 C 71.066406 42.414062 73.539062 43.175781 76.203125 43.175781 C 78.871094 43.175781 81.34375 42.414062 83.4375 41.273438 L 111.039062 68.875 C 109.898438 70.96875 109.136719 73.445312 109.136719 76.109375 C 109.136719 84.105469 115.609375 90.765625 123.796875 90.765625 C 131.980469 90.765625 138.453125 84.296875 138.453125 76.109375 C 138.453125 67.925781 131.980469 61.453125 123.796875 61.453125 C 121.128906 61.453125 118.65625 62.214844 116.5625 63.355469 L 88.769531 35.753906 C 89.910156 33.660156 90.671875 31.183594 90.671875 28.519531 C 90.671875 20.523438 84.199219 13.863281 76.015625 13.863281 C 67.828125 13.863281 61.355469 20.332031 61.355469 28.519531 C 61.355469 31.183594 62.117188 33.660156 63.261719 35.753906 L 35.847656 63.546875 C 33.753906 62.402344 31.28125 61.640625 28.613281 61.640625 C 20.621094 61.640625 13.957031 68.113281 13.957031 76.300781 C 13.957031 84.484375 20.621094 90.765625 28.613281 90.765625 Z M 28.613281 90.765625 "/><path style=" stroke:none;fill-rule:nonzero;fill:#ffffff;fill-opacity:1;" d="M 43.273438 171.289062 C 43.273438 179.386719 36.710938 185.949219 28.613281 185.949219 C 20.519531 185.949219 13.957031 179.386719 13.957031 171.289062 C 13.957031 163.195312 20.519531 156.632812 28.613281 156.632812 C 36.710938 156.632812 43.273438 163.195312 43.273438 171.289062 Z M 43.273438 171.289062 "/><path style=" stroke:none;fill-rule:nonzero;fill:#ffffff;fill-opacity:1;" d="M 76.203125 156.632812 C 73.539062 156.632812 71.066406 157.394531 68.972656 158.535156 L 41.179688 130.933594 C 42.320312 128.839844 43.082031 126.363281 43.082031 123.699219 C 43.082031 121.035156 42.320312 118.558594 41.179688 116.464844 L 68.78125 88.863281 C 70.875 90.007812 73.347656 90.765625 76.015625 90.765625 C 84.007812 90.765625 90.671875 84.296875 90.671875 76.109375 C 90.671875 67.925781 84.199219 61.453125 76.015625 61.453125 C 67.828125 61.453125 61.355469 67.925781 61.355469 76.109375 C 61.355469 78.773438 62.117188 81.25 63.261719 83.34375 L 35.847656 111.136719 C 33.753906 109.992188 31.28125 109.234375 28.613281 109.234375 C 20.621094 109.234375 13.957031 115.703125 13.957031 123.890625 C 13.957031 132.074219 20.429688 138.546875 28.613281 138.546875 C 31.28125 138.546875 33.753906 137.785156 35.847656 136.644531 L 63.449219 164.246094 C 62.308594 166.339844 61.546875 168.816406 61.546875 171.480469 C 61.546875 179.476562 68.019531 186.136719 76.203125 186.136719 C 84.390625 186.136719 90.863281 179.667969 90.863281 171.480469 C 90.863281 163.296875 84.199219 156.632812 76.203125 156.632812 Z M 76.203125 156.632812 "/><path style=" stroke:none;fill-rule:nonzero;fill:#ffffff;fill-opacity:1;" d="M 186.042969 171.289062 C 186.042969 179.386719 179.480469 185.949219 171.386719 185.949219 C 163.289062 185.949219 156.726562 179.386719 156.726562 171.289062 C 156.726562 163.195312 163.289062 156.632812 171.386719 156.632812 C 179.480469 156.632812 186.042969 163.195312 186.042969 171.289062 Z M 186.042969 171.289062 "/><path style=" stroke:none;fill-rule:nonzero;fill:#ffffff;fill-opacity:1;" d="M 171.386719 109.042969 C 163.390625 109.042969 156.726562 115.515625 156.726562 123.699219 C 156.726562 126.363281 157.488281 128.839844 158.632812 130.933594 L 131.027344 158.726562 C 128.933594 157.585938 126.460938 156.824219 123.796875 156.824219 C 121.128906 156.824219 118.65625 157.585938 116.5625 158.726562 L 88.769531 130.933594 C 89.910156 128.839844 90.671875 126.363281 90.671875 123.699219 C 90.671875 115.703125 84.199219 109.042969 76.015625 109.042969 C 67.828125 109.042969 61.355469 115.515625 61.355469 123.699219 C 61.355469 131.886719 67.828125 138.359375 76.015625 138.359375 C 78.679688 138.359375 81.152344 137.597656 83.25 136.453125 L 110.851562 164.054688 C 109.707031 166.152344 108.945312 168.625 108.945312 171.289062 C 108.945312 179.285156 115.417969 185.949219 123.605469 185.949219 C 131.789062 185.949219 138.261719 179.476562 138.261719 171.289062 C 138.261719 168.625 137.5 166.152344 136.359375 164.054688 L 163.960938 136.453125 C 166.054688 137.597656 168.53125 138.359375 171.195312 138.359375 C 179.191406 138.359375 185.851562 131.886719 185.851562 123.699219 C 185.851562 115.515625 179.378906 109.042969 171.386719 109.042969 Z M 171.386719 109.042969 "/></g></svg>